<svg xmlns="http://www.w3.org/2000/svg" width="120" height="120" viewBox="0 0 120 120"><g transform="translate(5 15)"><rect width="120" height="120" transform="translate(-5 -15)" fill="none"/><path d="M51.531,56.134a8.846,8.846,0,0,0-3.964-5.564,8.752,8.752,0,0,0-6.667-1.1A8.869,8.869,0,0,0,44.972,66.73,8.944,8.944,0,0,0,51.531,56.134ZM44.388,64.22A6.292,6.292,0,1,1,42.917,51.81a6.2,6.2,0,0,1,3.286.947A6.3,6.3,0,0,1,44.388,64.22Z" transform="translate(-10.995 -0.162)" fill="none" stroke="#7cde84" stroke-width="3"/><path d="M122.728,55.339c-4.258-1.353-6.537-3.634-9.691-6.793-4.21-4.218-9.452-9.466-21.767-14.707C69.8,24.7,47.982,27.784,47.065,27.918a1.606,1.606,0,0,0-.405.146,20.63,20.63,0,0,0-5.076,1.363,19.594,19.594,0,0,0-10.537,9.9.051.051,0,0,0,0,.011c-1.691,3.558-1.772,7.206-1.865,11.431-.126,5.709-.268,12.179-4.256,21.075a31.516,31.516,0,0,0-2.7,8.914c-.957,7.368.957,14.494,5.687,21.181A33.814,33.814,0,0,0,42.349,113.47a35.591,35.591,0,0,0,13.063,2.909q.608.02,1.212.019a36.268,36.268,0,0,0,12.421-2.183l.009,0c16.39-5.689,25.9-14.525,33.539-21.625,6.048-5.621,10.826-10.061,16.974-11.214,8.673-1.627,12.088-7.539,12.393-12.528A13.29,13.29,0,0,0,122.728,55.339Zm-67.208,57.7a32.24,32.24,0,0,1-11.843-2.635,30.537,30.537,0,0,1-13.041-10.394c-4.29-6.065-5.959-12.223-5.1-18.824a28.318,28.318,0,0,1,2.432-7.98c4.264-9.512,4.421-16.639,4.548-22.366.087-4,.157-7.155,1.54-10.068a16.142,16.142,0,0,1,8.79-8.26,16.575,16.575,0,0,1,11.517-.474C66.985,36.337,83.244,55.128,87.183,69.98A48.345,48.345,0,0,1,89.11,82.32a29.336,29.336,0,0,1-1.865,9.837,31.4,31.4,0,0,1-7.067,11.068,33.139,33.139,0,0,1-24.658,9.817Zm63.432-34.949c-7.1,1.332-12.443,6.3-18.632,12.05a115.131,115.131,0,0,1-15.145,12.421,34.513,34.513,0,0,0,5.2-9.24,32.692,32.692,0,0,0,2.075-10.953A50.869,50.869,0,0,0,90.41,69.125C86.941,56.048,73.351,37.817,59.6,30.718A84.218,84.218,0,0,1,89.963,36.91c11.719,4.986,16.706,9.98,20.713,13.994,3.223,3.229,6.008,6.017,11.042,7.615a9.955,9.955,0,0,1,6.911,10.124C128.333,73.48,124.716,77.013,118.952,78.095Z" transform="translate(-21.986 -27.312)" fill="none" stroke="#7cde84" stroke-width="7"/></g></svg>